<?xml version="1.0" encoding="utf-8"?>
<svg version="1.1" id="Layer_1" x="0px" y="0px" viewBox="0 0 500 500" width="500" height="500" xmlns="http://www.w3.org/2000/svg" xmlns:bx="https://boxy-svg.com">
  <defs id="defs1">
    <bx:grid x="0.061" y="-0.024" width="21.394" height="21.394"/>
  </defs>
  <style type="text/css" id="style1">
	.st0{fill:#ECECEC;}
	.st1{fill:#EFC855;}
	.st2{fill:#FBAF57;}
	.st3{fill:#38515F;}
	.st4{fill:#405764;}
	.st5{fill:#DCA44A;}
	.st6{fill:#D69649;}
	.st7{fill:#FFFFFF;}
	.st8{font-family:'ArialRoundedMTBold';}
	.st9{font-size:30.8353px;}
	.st10{font-size:30.7679px;}
</style>
  <g id="g43" transform="matrix(3.3694181,0,0,3.3694181,-2.7063548,-2.0324814)">
    <circle class="st0" cx="75" cy="74.800003" r="73.900002" style="fill:#2e3742" id="circle1"/>
    <path class="st3" d="m 87.892,22.184 c 12.8,-4.8 24.3,-3.2 34.2,6.5 6.4,6.3 9.8,16.4 8.3,24.2 -1,0.2 -2,-0.1 -2.9,-0.3 2,-22.4 -20.9,-35.6 -37.5,-27.5 0.8,0.7 2,0.7 3,1 -0.1,1.1 -0.6,1.9 -0.9,3.1 -2.9,-0.8 -5.8,-1.5 -8.8,-2.4 0.8,-3 1.6,-5.9 2.4,-8.9 1,0.3 1.9,0.5 2.9,0.8 0.1,1.3 -0.7,2.3 -0.7,3.5 z" style="fill:#f6f6f6" id="path1"/>
    <path class="st4" d="m 125.792,59.384 c 0.4,-1.2 0.7,-2.1 1,-3.2 1.1,0 2,0.3 3,0.6 -0.1,1.3 -0.6,2.4 -1,3.6 -1.1,0 -2,-0.5 -3,-1 z" style="fill:#f6f6f6" id="path2"/>
    <path class="st4" d="m 122.692,65.184 c 0.6,-0.9 1.1,-1.7 1.6,-2.6 0.9,0.5 1.8,0.9 2.7,1.4 -0.3,1.1 -1,2 -1.7,2.9 -0.9,-0.5 -1.6,-1 -2.6,-1.7 z" style="fill:#f6f6f6" id="path3"/>
    <path class="st3" d="m 19.943,95.673 c -0.5,12.6 4.5,22 15.8,27.5 7.1,3.4 14.4,3.3 21.7,-0.1 -0.9,-0.3 -1.8,-0.5 -2.7,-0.8 -0.1,-1.1 0.4,-1.9 0.6,-3.1 3,0.8 5.9,1.6 8.9,2.4 -0.8,3 -1.6,5.9 -2.4,8.9 -1,-0.3 -1.9,-0.5 -2.9,-0.7 -0.2,-1.2 0.5,-2.2 0.5,-3.5 -13.1,4.9 -24.8,3.1 -34.7,-7 -6.3,-6.5 -8.7,-14.6 -8,-23.6 1.2,-0.4 2.1,0 3.2,0 z" style="fill:#f6f6f6" id="path4"/>
    <path class="st4" d="m 21.643,88.973 c -0.4,1.2 -0.7,2.1 -1,3.2 -1,0 -2,-0.3 -3,-0.7 0,-1.2 0.6,-2.3 0.9,-3.5 1.2,0 2,0.6 3.1,1 z" style="fill:#f6f6f6" id="path5"/>
    <path class="st4" d="m 22.143,81.473 c 0.8,0.6 1.6,1.1 2.4,1.7 -0.3,1 -0.9,1.7 -1.5,2.6 -0.9,-0.5 -1.8,-0.9 -2.7,-1.4 0.4,-1.1 1.1,-2 1.8,-2.9 z" style="fill:#f6f6f6" id="path6"/>
    <g transform="matrix(0.040405,0,0,0.040405,82.8398,85.1972)" id="g24">
      <title id="title6">Euro2</title>
      <path fill-rule="nonzero" fill="#fee475" fill-opacity="1" d="m 1186.79,140.86 c 0,497.059 -402.945,899.99 -899.996,899.99 -497.054,0 -900.004,-402.931 -900.004,-899.99 0,-497.06 402.95,-899.99 900.004,-899.99 497.051,0 899.996,402.93 899.996,899.99" id="path7"/>
      <path fill-rule="nonzero" fill="#d66f00" fill-opacity="1" d="m 1163.79,140.86 c 0,484.352 -392.637,876.99 -876.996,876.99 -484.344,0 -876.984,-392.638 -876.984,-876.99 0,-484.34 392.64,-876.99 876.984,-876.99 484.359,0 876.996,392.65 876.996,876.99" id="path8"/>
      <path fill-rule="nonzero" fill="#e79528" fill-opacity="1" d="M -38.104,955.415 C -148.78,911.235 -248.43,845.333 -331.53,762.704 l 171.48,-171.496 c 81.141,86.714 186.324,150.683 304.895,181.281 z M 919.403,-2.089 C 888.825,-120.64 824.833,-225.84 738.134,-306.97 l 169.301,-169.28 c 14.859,14.16 29.23,28.83 43.097,43.98 63.188,73.19 114.388,156.95 150.828,248.24 L 919.403,-2.089" id="path9"/>
      <path fill-rule="nonzero" fill="#e79528" fill-opacity="1" d="m -383.98,705.587 c -15.85,-18.801 -30.84,-38.317 -45.09,-58.418 l 178.91,-178.907 c 12.28,21.836 25.81,42.86 40.51,63.004 z M 678.185,-356.57 c -20.129,-14.7 -41.172,-28.23 -63,-40.52 l 174.179,-174.19 c 20.481,13.83 40.391,28.49 59.621,43.91 l -170.8,170.8" id="path10"/>
      <path fill-rule="nonzero" fill="#fee960" fill-opacity="1" d="m 304.044,792.59 c -54.98,0 -108.309,-6.972 -159.199,-20.101 L 919.403,-2.089 c 13.129,50.89 20.102,104.238 20.102,159.219 0,350.96 -284.5,635.46 -635.461,635.46 z M -160.05,591.208 c -17.71,-18.926 -34.29,-38.95 -49.6,-59.942 L 678.185,-356.57 c 20.988,15.31 41.019,31.89 59.949,49.6 L -160.05,591.208" id="path11"/>
      <path fill-rule="nonzero" fill="#fee960" fill-opacity="1" d="m -250.16,468.262 c -51.74,-91.968 -81.26,-198.093 -81.26,-311.132 0,-350.96 284.507,-635.47 635.464,-635.47 113.039,0 219.18,29.51 311.141,81.25 L -250.16,468.262" id="path12"/>
      <path fill-rule="nonzero" fill="#fef49c" fill-opacity="1" d="M 144.845,772.489 C 26.274,741.891 -78.909,677.922 -160.05,591.208 L 738.134,-306.97 c 86.699,81.13 150.691,186.33 181.269,304.881 L 144.845,772.489" id="path13"/>
      <path fill-rule="nonzero" fill="#fef49c" fill-opacity="1" d="m -209.65,531.266 c -14.7,-20.144 -28.23,-41.168 -40.51,-63.004 L 615.185,-397.09 c 21.828,12.29 42.871,25.82 63,40.52 L -209.65,531.266" id="path14"/>
      <path fill-rule="nonzero" fill="#c55900" fill-opacity="1" d="m 1015.99,140.86 c 0,402.723 -326.485,729.184 -729.196,729.184 -402.714,0 -729.184,-326.461 -729.184,-729.184 0,-402.72 326.47,-729.18 729.184,-729.18 402.711,0 729.196,326.46 729.196,729.18" id="path15"/>
      <path fill-rule="nonzero" fill="#9e4500" fill-opacity="1" d="m -402.8,180.462 c 0,-402.732 326.473,-729.192 729.196,-729.192 191.289,0 365.277,73.76 495.359,194.26 -133.199,-143.77 -323.52,-233.85 -534.961,-233.85 -402.714,0 -729.184,326.46 -729.184,729.18 0,211.434 90.08,401.754 233.86,534.953 C -329.04,545.735 -402.8,371.743 -402.8,180.462" id="path16"/>
      <path fill-rule="nonzero" fill="#3d7381" fill-opacity="1" d="m 1186.56,120.161 c -0.16,-7.121 -0.4,-14.223 -0.73,-21.289 0.33,7.066 0.57,14.168 0.73,21.289 z m -1.13,-29.039 c -0.17,-3.66 -0.41,-7.293 -0.65,-10.934 0.24,3.641 0.48,7.274 0.65,10.934 z M 932.384,-486.2 c -0.84,-0.87 -1.699,-1.76 -2.551,-2.62 0.852,0.86 1.711,1.75 2.551,2.62 z m -3.891,-4 c -0.5,-0.5 -1,-1 -1.488,-1.5 0.488,0.5 0.988,1 1.488,1.5 z m -1.5,-1.5 c -1.269,-1.29 -2.527,-2.57 -3.801,-3.83 1.274,1.26 2.532,2.54 3.801,3.83 z m -6.051,-6.08 c -149.277,-148.23 -350.25,-244.48 -573.476,-259.34 223.226,14.86 424.199,111.11 573.476,259.34 z M 338.044,-757.7 c -16.961,-0.96 -34.039,-1.43 -51.25,-1.43 17.211,0 34.289,0.47 51.25,1.43" id="path17"/>
      <path fill-rule="nonzero" fill="#eda845" fill-opacity="1" d="m 1186.36,158.11 c -4.28,-226.531 -92.2,-432.6 -234.168,-588.57 -160.839,-187.15 -399.269,-305.67 -665.398,-305.67 -266.113,0 -504.584,118.55 -665.414,305.7 -141.97,155.96 -229.87,362.009 -234.14,588.54 -0.13,-5.762 -0.45,-11.461 -0.45,-17.25 0,-497.06 402.95,-899.99 900.004,-899.99 17.211,0 34.289,0.47 51.25,1.43 3.141,0.17 6.281,0.37 9.422,0.58 223.226,14.86 424.199,111.11 573.476,259.34 0.75,0.76 1.493,1.49 2.25,2.25 1.274,1.26 2.532,2.54 3.801,3.83 h 0.012 c 0.488,0.5 0.988,1 1.488,1.5 0.442,0.46 0.903,0.92 1.34,1.38 0.852,0.86 1.711,1.75 2.551,2.62 144.296,148.53 237.766,346.67 252.396,566.388 0.24,3.641 0.48,7.274 0.65,10.934 0.15,2.558 0.27,5.16 0.4,7.75 0.33,7.066 0.57,14.168 0.73,21.289 0.16,6.879 0.23,13.777 0.23,20.699 0,5.789 -0.32,11.488 -0.43,17.25" id="path18"/>
      <path fill-rule="nonzero" fill="#fef1ad" fill-opacity="1" d="m -378.62,-430.43 c 160.83,-187.15 399.301,-305.7 665.414,-305.7 266.129,0 504.559,118.52 665.398,305.67 -0.57,-0.61 -1.097,-1.19 -1.66,-1.81 -13.437,-15.55 -27.41,-30.63 -41.886,-45.19 l -1.211,1.21 c -18.719,-17.85 -38.243,-34.93 -58.45,-51.12 l 2.539,-2.55 c -18.8,-15.85 -38.32,-30.84 -58.421,-45.09 l -3.739,3.73 c -143.492,-96.83 -316.398,-153.36 -502.57,-153.36 -81.762,0 -160.98,10.91 -236.266,31.34 l 14.496,-14.49 c -73.91,19.27 -143.933,48.07 -208.904,84.78 l -18.17,18.17 c -81,46.72 -154.03,105.71 -216.57,174.41" id="path19"/>
      <path fill-rule="nonzero" fill="#fef49c" fill-opacity="1" d="m 950.532,-432.27 c -13.867,-15.15 -28.238,-29.82 -43.097,-43.98 l 1.211,-1.21 c 14.476,14.56 28.449,29.64 41.886,45.19" id="path20"/>
      <path fill-rule="nonzero" fill="#fef1ad" fill-opacity="1" d="m -162.05,-604.84 18.17,-18.17 c 64.971,-36.71 134.994,-65.51 208.904,-84.78 l -14.496,14.49 c -75.23,20.43 -146.562,50.38 -212.578,88.46" id="path21"/>
      <path fill-rule="nonzero" fill="#fef49c" fill-opacity="1" d="m 848.985,-527.37 c -19.23,-15.42 -39.14,-30.08 -59.621,-43.91 l 3.739,-3.73 c 20.101,14.25 39.621,29.24 58.421,45.09 l -2.539,2.55" id="path22"/>
      <path fill-rule="nonzero" fill="#9e4500" fill-opacity="1" d="m 598.851,-207.79 -34.319,163.804 c -33.328,-33.72 -81.904,-50.589 -145.745,-50.589 -64.044,0 -115.637,22.893 -155.386,68.859 -22.282,26.103 -38.142,58.423 -47.572,97.371 h 323.999 l -19.261,91.536 H 204.39 c -0.409,9.029 -0.611,20.472 -0.611,34.526 0,13.653 0.405,27.707 1.211,42.56 h 299.919 l -19.276,91.536 H 217.027 c 9.848,41.96 24.894,75.086 45.175,98.975 39.341,46.369 90.338,69.655 152.969,69.655 75.28,0 135.307,-23.286 180.076,-69.858 V 611.46 C 544.25,636.953 485.033,649.8 417.183,649.8 302.956,649.8 209.002,610.456 135.326,531.762 85.142,478.364 52.219,411.717 36.156,331.813 h -87.725 l 19.272,-91.536 h 57.214 c -0.402,-9.438 -0.604,-19.274 -0.604,-29.708 0,-18.067 0.401,-33.733 1.207,-47.378 h -77.089 l 19.272,-91.536 h 69.66 C 53.624,-6.646 86.345,-72.09 135.326,-124.68 c 74.081,-79.5 171.441,-119.25 292.09,-119.25 65.646,0 122.86,12.05 171.435,36.14" id="path23"/>
      <path fill-rule="nonzero" fill-opacity="1" d="m 564.774,-252.39 -34.332,163.808 c -33.316,-33.718 -81.904,-50.588 -145.745,-50.588 -64.032,0 -115.624,22.89 -155.374,68.858 -22.282,26.103 -38.141,58.423 -47.584,97.371 h 324.012 l -19.273,91.537 H 170.301 c -0.398,9.033 -0.6,20.471 -0.6,34.526 0,13.653 0.405,27.707 1.207,42.563 H 470.82 l -19.265,91.537 H 182.949 c 9.836,41.96 24.894,75.081 45.163,98.97 39.353,46.374 90.339,69.661 152.981,69.661 75.28,0 135.295,-23.287 180.066,-69.863 V 566.864 C 510.173,592.357 450.948,605.209 383.094,605.209 268.867,605.209 174.925,565.86 101.248,487.167 51.06,433.768 18.137,367.121 2.076,287.222 h -87.727 l 19.273,-91.537 h 57.213 c -0.401,-9.442 -0.604,-19.277 -0.604,-29.711 0,-18.068 0.402,-33.734 1.203,-47.378 h -77.085 l 19.273,-91.537 h 69.66 c 16.261,-78.301 48.981,-143.739 97.966,-196.339 74.069,-79.49 171.44,-119.24 292.086,-119.24 65.646,0 122.852,12.04 171.44,36.13" style="fill:#fff3e2" id="path24"/>
    </g>
    <ellipse style="stroke: rgb(0, 0, 0); fill: rgba(0, 0, 0, 0.69); stroke-width: 0px;" cx="58.957" cy="61.115" rx="37.963" ry="37.963"/>
    <g transform="matrix(0.042182,0,0,0.042182,46.2133,57.1256)" id="g42">
      <title id="title24">Yen2</title>
      <path fill-rule="nonzero" fill="#cfdce6" fill-opacity="1" d="m 1169.96,52.34 c 0,497.059 -402.95,899.992 -900.001,899.992 -497.059,0 -899.999,-402.933 -899.999,-899.992 0,-497.06 402.94,-899.99 899.999,-899.99 497.051,0 900.001,402.93 900.001,899.99" id="path25"/>
      <path fill-rule="nonzero" fill="#cdd9e2" fill-opacity="1" d="m 1146.96,52.34 c 0,484.352 -392.642,876.992 -877.001,876.992 -484.349,0 -876.989,-392.64 -876.989,-876.992 0,-484.34 392.64,-876.99 876.989,-876.99 484.359,0 877.001,392.65 877.001,876.99" id="path26"/>
      <path fill-rule="nonzero" fill="#e2eaf1" fill-opacity="1" d="M -54.939,866.899 C -165.61,822.719 -265.27,756.817 -348.37,674.188 l 171.49,-171.5 C -95.744,589.402 9.439,653.371 128.01,683.969 Z M 902.568,-90.609 C 871.99,-209.16 807.998,-314.36 721.299,-395.49 L 890.6,-564.77 c 14.859,14.16 29.23,28.83 43.097,43.97 63.184,73.19 114.393,156.96 150.833,248.25 L 902.568,-90.609" id="path27"/>
      <path fill-rule="nonzero" fill="#e2eaf1" fill-opacity="1" d="m -400.81,617.067 c -15.85,-18.801 -30.84,-38.317 -45.09,-58.418 L -267,379.742 c 12.28,21.836 25.81,42.86 40.52,63.008 z M 661.35,-445.1 c -20.129,-14.69 -41.172,-28.22 -63,-40.51 L 772.529,-659.8 c 20.481,13.83 40.391,28.49 59.621,43.91 l -170.8,170.79" id="path28"/>
      <path fill-rule="nonzero" fill="#fee960" fill-opacity="1" d="m 287.209,704.07 c -54.98,0 -108.309,-6.972 -159.199,-20.101 L 902.568,-90.609 c 13.129,50.89 20.102,104.238 20.102,159.219 0,350.96 -284.5,635.46 -635.461,635.46 z M -176.88,502.688 c -17.72,-18.926 -34.29,-38.95 -49.6,-59.938 L 661.35,-445.1 c 20.988,15.32 41.007,31.9 59.949,49.61 L -176.88,502.688" id="path29"/>
      <path fill-rule="nonzero" fill="#fee960" fill-opacity="1" d="m -267,379.742 c -51.74,-91.968 -81.25,-198.093 -81.25,-311.132 0,-350.96 284.502,-635.47 635.459,-635.47 113.039,0 219.18,29.51 311.141,81.25 L -267,379.742" id="path30"/>
      <path fill-rule="nonzero" fill="#fef49c" fill-opacity="1" d="M 128.01,683.969 C 9.439,653.371 -95.744,589.402 -176.88,502.688 L 721.299,-395.49 c 86.699,81.13 150.691,186.33 181.269,304.881 L 128.01,683.969" id="path31"/>
      <path fill-rule="nonzero" fill="#fef49c" fill-opacity="1" d="M -226.48,442.75 C -241.19,422.602 -254.72,401.578 -267,379.742 L 598.35,-485.61 c 21.828,12.29 42.871,25.82 63,40.51 l -887.83,887.85" id="path32"/>
      <path fill-rule="nonzero" fill="#9fb4c3" fill-opacity="1" d="m 999.15,52.34 c 0,402.723 -326.48,729.184 -729.191,729.184 -402.719,0 -729.179,-326.461 -729.179,-729.184 0,-402.72 326.46,-729.18 729.179,-729.18 402.711,0 729.191,326.46 729.191,729.18" id="path33"/>
      <path fill-rule="nonzero" fill="#87a2b9" fill-opacity="1" d="m -419.64,91.942 c 0,-402.732 326.478,-729.192 729.201,-729.192 191.289,0 365.277,73.76 495.359,194.26 -133.199,-143.77 -323.52,-233.85 -534.961,-233.85 -402.719,0 -729.179,326.46 -729.179,729.18 0,211.437 90.07,401.754 233.85,534.953 C -345.88,457.215 -419.64,283.223 -419.64,91.942" id="path34"/>
      <path fill-rule="nonzero" fill="#3d7381" fill-opacity="1" d="m 1169.73,31.641 c -0.16,-7.121 -0.4,-14.223 -0.74,-21.289 0.34,7.066 0.58,14.168 0.74,21.289 z M 1168.6,2.602 c -0.18,-3.66 -0.41,-7.293 -0.65,-10.934 0.24,3.641 0.47,7.274 0.65,10.934 z M 915.549,-574.73 c -0.84,-0.86 -1.699,-1.75 -2.551,-2.62 0.852,0.87 1.711,1.76 2.551,2.62 z m -3.891,-3.99 c -0.5,-0.5 -1,-1 -1.488,-1.5 0.488,0.5 0.988,1 1.488,1.5 z m -1.5,-1.5 c -1.269,-1.29 -2.527,-2.57 -3.801,-3.83 1.274,1.26 2.532,2.54 3.801,3.83 z m -6.051,-6.08 C 754.83,-734.53 553.857,-830.79 330.631,-845.64 553.857,-830.79 754.83,-734.53 904.107,-586.3 Z M 321.209,-846.22 c -16.961,-0.96 -34.039,-1.43 -51.25,-1.43 17.211,0 34.289,0.47 51.25,1.43" id="path35"/>
      <path fill-rule="nonzero" fill="#c1d3e0" fill-opacity="1" d="m 1169.53,69.59 c -4.28,-226.53 -92.2,-432.6 -234.173,-588.57 -160.839,-187.15 -399.269,-305.67 -665.398,-305.67 -266.117,0 -504.579,118.55 -665.409,305.7 -141.98,155.96 -229.87,362.01 -234.15,588.54 -0.12,-5.762 -0.44,-11.461 -0.44,-17.25 0,-497.06 402.94,-899.99 899.999,-899.99 17.211,0 34.289,0.47 51.25,1.43 3.141,0.17 6.281,0.36 9.422,0.58 223.226,14.85 424.199,111.11 573.476,259.34 0.75,0.76 1.493,1.49 2.25,2.25 1.274,1.26 2.532,2.54 3.801,3.83 h 0.012 c 0.488,0.5 0.988,1 1.488,1.5 0.442,0.46 0.903,0.92 1.34,1.37 0.852,0.87 1.711,1.76 2.551,2.62 144.301,148.54 237.771,346.68 252.401,566.398 0.24,3.641 0.47,7.274 0.65,10.934 0.15,2.558 0.27,5.16 0.39,7.75 0.34,7.066 0.58,14.168 0.74,21.289 0.15,6.879 0.23,13.777 0.23,20.699 0,5.789 -0.33,11.488 -0.43,17.25" id="path36"/>
      <path fill-rule="nonzero" fill="#ffffff" fill-opacity="1" d="m -395.45,-518.95 c 160.83,-187.15 399.292,-305.7 665.409,-305.7 266.129,0 504.559,118.52 665.398,305.67 -0.57,-0.61 -1.097,-1.19 -1.66,-1.82 -13.437,-15.54 -27.41,-30.62 -41.886,-45.18 l -1.211,1.21 c -18.719,-17.85 -38.243,-34.93 -58.45,-51.12 l 2.539,-2.55 c -18.8,-15.85 -38.32,-30.84 -58.421,-45.09 l -3.739,3.73 c -143.492,-96.83 -316.398,-153.36 -502.57,-153.36 -81.762,0 -160.98,10.91 -236.266,31.34 l 14.496,-14.49 c -73.91,19.27 -143.933,48.07 -208.899,84.78 l -18.17,18.17 c -81,46.72 -154.03,105.71 -216.57,174.41" id="path37"/>
      <path fill-rule="nonzero" fill="#fef49c" fill-opacity="1" d="m 933.697,-520.8 c -13.867,-15.14 -28.238,-29.81 -43.097,-43.97 l 1.211,-1.21 c 14.476,14.56 28.449,29.64 41.886,45.18" id="path38"/>
      <path fill-rule="nonzero" fill="#e6e6e6" fill-opacity="1" d="m -178.88,-693.36 18.17,-18.17 c 64.966,-36.71 134.989,-65.51 208.899,-84.78 l -14.496,14.49 c -75.23,20.43 -146.563,50.38 -212.573,88.46" id="path39"/>
      <path fill-rule="nonzero" fill="#fef49c" fill-opacity="1" d="m 832.15,-615.89 c -19.23,-15.42 -39.14,-30.08 -59.621,-43.91 l 3.739,-3.73 c 20.101,14.25 39.621,29.24 58.421,45.09 l -2.539,2.55" id="path40"/>
      <path fill-rule="nonzero" fill="#87a2b9" fill-opacity="1" d="M 217.568,369.309 H 5.307 V 244.516 H 217.568 V 175.703 H 5.307 V 50.914 H 155.561 L -22.686,-308.31 H 152.26 l 110.219,244.923 c 13.8,30.52 25.652,56.571 35.371,78.141 10.687,-23.519 22.55,-49.562 35.578,-78.141 l 111.57,-244.923 h 174.949 l -180,359.224 h 152 v 124.789 h -214.59 v 68.813 h 214.59 V 369.309 H 377.357 V 526.762 H 217.568 V 369.309" id="path41"/>
      <path fill-rule="nonzero" fill-opacity="1" d="M 193.729,322.363 H -18.541 V 197.574 h 212.27 V 128.762 H -18.541 V 3.961 H 131.721 L -46.533,-355.26 h 174.941 l 110.223,244.92 c 13.797,30.524 25.656,56.575 35.367,78.153 10.699,-23.532 22.551,-49.571 35.582,-78.153 L 421.15,-355.26 H 596.1 L 416.1,3.961 H 568.107 V 128.762 H 353.51 v 68.812 H 568.107 V 322.363 H 353.51 v 157.45 H 193.729 v -157.45" style="fill:#ffffff" id="path42"/>
    </g>
  </g>
</svg>