<?xml version="1.0" encoding="utf-8"?>
<!-- Generator: Adobe Illustrator 25.3.1, SVG Export Plug-In . SVG Version: 6.00 Build 0)  -->
<svg version="1.1" id="Layer_1" xmlns="http://www.w3.org/2000/svg" xmlns:xlink="http://www.w3.org/1999/xlink" x="0px" y="0px"
	 viewBox="0 0 150 150" style="enable-background:new 0 0 150 150;" xml:space="preserve">
<style type="text/css">
	.st0{fill:#ECECEC;}
	.st1{fill:#EFC855;}
	.st2{fill:#FBAF57;}
	.st3{fill:#38515F;}
	.st4{fill:#405764;}
	.st5{fill:#DCA44A;}
	.st6{fill:#D69649;}
	.st7{fill:#FFFFFF;}
	.st8{font-family:'ArialRoundedMTBold';}
	.st9{font-size:30.8353px;}
	.st10{font-size:30.7679px;}
</style>
<g>
	<circle class="st0" cx="75" cy="74.8" r="73.9"/>
	<path class="st1" d="M61.6,90.1c-2.3-0.2-4.6,0.1-6.9-0.2C41,88.4,30,78.1,27.8,64.4c-1.9-12.2,3.6-24.5,14.1-30.8
		c8.2-4.9,16.9-5.9,25.8-3c6.4,2.1,11.4,6,15.3,11.7c3.7,5.3,5.2,11.1,5.5,17.4c-0.5,2.5-0.4,5.2-1.1,7.7c-0.9,3.5-2.4,6.8-4.5,9.7
		c-3.5,5-8.1,8.6-13.7,10.8c-2,0.9-4.1,1.6-6.3,1.5C62.3,89.5,62,89.7,61.6,90.1z M35,59.6c-0.4,12.4,10.4,22.5,22.1,23
		C70.4,83.2,80.8,71.4,81,60.3C81.3,47,70,36.4,57.7,36.5C45.6,36.7,34.6,47.3,35,59.6z"/>
	<path class="st2" d="M61.6,90.1c0.3-0.4,0.4-0.7,1-0.7c2.2,0.1,4.5-0.7,6.5-1.5c-0.4,5.6,0.7,10.7,4.2,15.4
		c4.6,6.2,10.6,9.4,18.2,9.8c6.2,0.3,11.4-2,16-5.9c3.2-2.7,5.5-6.2,6.5-10.1c1.8-6.7,1.3-13.2-2.5-19.3c-3-4.8-7.3-7.9-12.5-9.7
		c-3.8-1.3-7.7-1.4-11.6-0.8c0.8-2.5,0.6-5.1,1.1-7.7c11.8-0.9,21.4,3.2,28.5,12.7c3.1,4.3,4.9,9.1,5.4,14.5
		c0.5,5.5-0.2,10.7-2.5,15.6c-3.9,8.4-10.2,14.2-19.1,16.8c-11.3,3.2-21.4,0.8-29.9-7.2c-5.3-5-8.5-11.3-9.1-18.7
		C61.7,92.3,61.3,91.3,61.6,90.1z"/>
	<path class="st3" d="M25.6,91.1c-0.5,12.6,4.5,22,15.8,27.5c7.1,3.4,14.4,3.3,21.7-0.1c-0.9-0.3-1.8-0.5-2.7-0.8
		c-0.1-1.1,0.4-1.9,0.6-3.1c3,0.8,5.9,1.6,8.9,2.4c-0.8,3-1.6,5.9-2.4,8.9c-1-0.3-1.9-0.5-2.9-0.7c-0.2-1.2,0.5-2.2,0.5-3.5
		c-13.1,4.9-24.8,3.1-34.7-7c-6.3-6.5-8.7-14.6-8-23.6C23.6,90.7,24.5,91.1,25.6,91.1z"/>
	<path class="st3" d="M84.7,25.5c12.8-4.8,24.3-3.2,34.2,6.5c6.4,6.3,9.8,16.4,8.3,24.2c-1,0.2-2-0.1-2.9-0.3
		c2-22.4-20.9-35.6-37.5-27.5c0.8,0.7,2,0.7,3,1c-0.1,1.1-0.6,1.9-0.9,3.1c-2.9-0.8-5.8-1.5-8.8-2.4c0.8-3,1.6-5.9,2.4-8.9
		c1,0.3,1.9,0.5,2.9,0.8C85.5,23.3,84.7,24.3,84.7,25.5z"/>
	<path class="st4" d="M122.6,62.7c0.4-1.2,0.7-2.1,1-3.2c1.1,0,2,0.3,3,0.6c-0.1,1.3-0.6,2.4-1,3.6
		C124.5,63.7,123.6,63.2,122.6,62.7z"/>
	<path class="st4" d="M27.3,84.4c-0.4,1.2-0.7,2.1-1,3.2c-1,0-2-0.3-3-0.7c0-1.2,0.6-2.3,0.9-3.5C25.4,83.4,26.2,84,27.3,84.4z"/>
	<path class="st4" d="M119.5,68.5c0.6-0.9,1.1-1.7,1.6-2.6c0.9,0.5,1.8,0.9,2.7,1.4c-0.3,1.1-1,2-1.7,2.9
		C121.2,69.7,120.5,69.2,119.5,68.5z"/>
	<path class="st4" d="M27.8,76.9c0.8,0.6,1.6,1.1,2.4,1.7c-0.3,1-0.9,1.7-1.5,2.6c-0.9-0.5-1.8-0.9-2.7-1.4
		C26.4,78.7,27.1,77.8,27.8,76.9z"/>
	<path class="st5" d="M35,59.6c-0.5-12.3,10.6-22.9,22.6-23.1C70,36.4,81.3,47,81,60.3c-0.3,11.1-10.6,22.9-23.9,22.3
		C45.4,82.1,34.6,72,35,59.6z M49.9,64.5 M56.7,66.9 M60.9,46.5"/>
	<path class="st6" d="M87.5,67.4c3.9-0.6,7.8-0.6,11.6,0.8c5.3,1.8,9.5,4.9,12.5,9.7c3.8,6.1,4.3,12.6,2.5,19.3
		c-1.1,3.9-3.4,7.4-6.5,10.1c-4.6,3.9-9.9,6.3-16,5.9c-7.6-0.4-13.6-3.6-18.2-9.8c-3.4-4.7-4.5-9.8-4.2-15.4
		c5.6-2.3,10.2-5.9,13.7-10.8C85.1,74.1,86.6,70.9,87.5,67.4z M99.4,96.4"/>
	<text transform="matrix(1 0 0 1 47.8046 70.4553)" class="st7 st8 st9">¥</text>
	<text transform="matrix(1.0515 0 0 1 83.7137 101.6374)" class="st7 st8 st10">€</text>
</g>
</svg>
